<svg xmlns="http://www.w3.org/2000/svg" width="59" height="59" viewBox="0 0 59 59"><defs><clipPath id="l3g5a"><path fill="#fff" d="M29.078 0c16.06 0 29.078 13.026 29.078 29.094S45.137 58.187 29.078 58.187C13.018 58.187 0 45.162 0 29.094 0 13.026 13.019 0 29.078 0z"/></clipPath></defs><g><g><path fill="#17171f" d="M29.078 0c16.06 0 29.078 13.026 29.078 29.094S45.137 58.187 29.078 58.187C13.018 58.187 0 45.162 0 29.094 0 13.026 13.019 0 29.078 0z"/><path fill="none" stroke="#000" stroke-miterlimit="20" stroke-width="2" d="M29.078 0c16.06 0 29.078 13.026 29.078 29.094S45.137 58.187 29.078 58.187C13.018 58.187 0 45.162 0 29.094 0 13.026 13.019 0 29.078 0z" clip-path="url(&quot;#l3g5a&quot;)"/></g></g></svg>